<svg xmlns="http://www.w3.org/2000/svg" viewBox="0 0 64.16 80.2"><defs><style>.cls-1{fill:#fff}</style></defs><g id="Layer_2" data-name="Layer 2"><g id="Services"><path class="cls-1" d="M57.47 0H6.68A6.69 6.69 0 0 0 0 6.68v66.83a6.69 6.69 0 0 0 6.68 6.69h50.79a6.7 6.7 0 0 0 6.69-6.69V6.68A6.69 6.69 0 0 0 57.47 0zm4 73.51a4 4 0 0 1-4 4H6.68a4 4 0 0 1-4-4V6.68a4 4 0 0 1 4-4h50.79a4 4 0 0 1 4 4z"/><path class="cls-1" d="M50.79 6.68H13.37a4 4 0 0 0-4 4v10.7a4 4 0 0 0 4 4h37.42a4 4 0 0 0 4-4V10.69a4 4 0 0 0-4-4.01zm1.34 14.71a1.34 1.34 0 0 1-1.34 1.33H13.37A1.34 1.34 0 0 1 12 21.39v-10.7a1.34 1.34 0 0 1 1.34-1.33h37.45a1.34 1.34 0 0 1 1.34 1.33zM18.71 28.07h-5.34a4 4 0 0 0-4 4v5.35a4 4 0 0 0 4 4h5.34a4 4 0 0 0 4-4v-5.34a4 4 0 0 0-4-4.01zm1.34 9.36a1.34 1.34 0 0 1-1.34 1.33h-5.34A1.34 1.34 0 0 1 12 37.43v-5.35a1.34 1.34 0 0 1 1.34-1.34h5.34a1.34 1.34 0 0 1 1.34 1.34zM34.75 28.07h-5.34a4 4 0 0 0-4 4v5.35a4 4 0 0 0 4 4h5.34a4 4 0 0 0 4-4v-5.34a4 4 0 0 0-4-4.01zm1.34 9.36a1.34 1.34 0 0 1-1.34 1.33h-5.34a1.34 1.34 0 0 1-1.34-1.33v-5.35a1.34 1.34 0 0 1 1.34-1.34h5.34a1.34 1.34 0 0 1 1.34 1.34zM50.79 28.07h-5.35a4 4 0 0 0-4 4v5.35a4 4 0 0 0 4 4h5.35a4 4 0 0 0 4-4v-5.34a4 4 0 0 0-4-4.01zm1.34 9.36a1.34 1.34 0 0 1-1.34 1.33h-5.35a1.34 1.34 0 0 1-1.33-1.33v-5.35a1.34 1.34 0 0 1 1.33-1.34h5.35a1.34 1.34 0 0 1 1.34 1.34zM18.71 44.11h-5.34a4 4 0 0 0-4 4v5.34a4 4 0 0 0 4 4h5.34a4 4 0 0 0 4-4v-5.33a4 4 0 0 0-4-4.01zm1.34 9.35a1.34 1.34 0 0 1-1.34 1.34h-5.34A1.34 1.34 0 0 1 12 53.46v-5.34a1.34 1.34 0 0 1 1.34-1.34h5.34a1.34 1.34 0 0 1 1.34 1.34zM34.75 44.11h-5.34a4 4 0 0 0-4 4v5.34a4 4 0 0 0 4 4h5.34a4 4 0 0 0 4-4v-5.33a4 4 0 0 0-4-4.01zm1.34 9.35a1.34 1.34 0 0 1-1.34 1.34h-5.34a1.34 1.34 0 0 1-1.34-1.34v-5.34a1.34 1.34 0 0 1 1.34-1.34h5.34a1.34 1.34 0 0 1 1.34 1.34zM18.71 60.15h-5.34a4 4 0 0 0-4 4v5.35a4 4 0 0 0 4 4h5.34a4 4 0 0 0 4-4v-5.34a4 4 0 0 0-4-4.01zm1.34 9.35a1.34 1.34 0 0 1-1.34 1.34h-5.34A1.34 1.34 0 0 1 12 69.5v-5.34a1.34 1.34 0 0 1 1.34-1.34h5.34a1.34 1.34 0 0 1 1.34 1.34zM34.75 60.15h-5.34a4 4 0 0 0-4 4v5.35a4 4 0 0 0 4 4h5.34a4 4 0 0 0 4-4v-5.34a4 4 0 0 0-4-4.01zm1.34 9.35a1.34 1.34 0 0 1-1.34 1.34h-5.34a1.34 1.34 0 0 1-1.34-1.34v-5.34a1.34 1.34 0 0 1 1.34-1.34h5.34a1.34 1.34 0 0 1 1.34 1.34zM50.79 44.11h-5.35a4 4 0 0 0-4 4V69.5a4 4 0 0 0 4 4h5.35a4 4 0 0 0 4-4V48.12a4 4 0 0 0-4-4.01zm1.34 25.39a1.34 1.34 0 0 1-1.34 1.34h-5.35a1.34 1.34 0 0 1-1.33-1.34V48.12a1.34 1.34 0 0 1 1.33-1.34h5.35a1.34 1.34 0 0 1 1.34 1.34z"/></g></g></svg>