<svg xmlns="http://www.w3.org/2000/svg" viewBox="0 0 81.53 78.14"><defs><style>.cls-1{fill:#fff}</style></defs><g id="Layer_2" data-name="Layer 2"><g id="Services"><g id="Page-1"><g id="Icons"><g id="_60--Open-Folder--_file_-folder_-document_-write_" data-name="60--Open-Folder--(file,-folder,-document,-write)"><path id="Fill-704" class="cls-1" d="M72.16 32.69H52a1.26 1.26 0 0 1 0-2.52h20.16a1.26 1.26 0 1 1 0 2.52"/><path id="Fill-705" class="cls-1" d="M70.49 37.74h-10.1a1.26 1.26 0 1 1 0-2.52h10.1a1.26 1.26 0 1 1 0 2.52"/><path class="cls-1" d="M59.41 64.62H5.25c-1.75 0-2.49-.69-2.55-2.43l10.65-25.44c.51-1.16 1.15-1.75 1.92-1.75h19.86a12.56 12.56 0 0 0 9.66-4.52 9.84 9.84 0 0 1 7.59-3.55h23.83a1.9 1.9 0 0 1 1.46.68 1.82 1.82 0 0 1 .38 1.49l-4.23 17.78h.27a11.76 11.76 0 0 1 2.29.82l4.3-18.06a4.47 4.47 0 0 0-.92-3.76 4.55 4.55 0 0 0-3.55-1.69H52.38a12.53 12.53 0 0 0-9.66 4.53 9.88 9.88 0 0 1-7.59 3.55H15.27c-1.87 0-3.43 1.19-4.4 3.37L.1 61.41a1.5 1.5 0 0 0-.1.52c0 3.42 1.91 5.38 5.25 5.38h55.27a11.73 11.73 0 0 1-1.11-2.69z"/><path id="Fill-709" class="cls-1" d="M1.35 63.27a1.33 1.33 0 0 1-.28 0 1.34 1.34 0 0 1-1-1.59L9 19.76a4.57 4.57 0 0 1 4.46-3.61h58.71a4.55 4.55 0 0 1 3.55 1.69 4.48 4.48 0 0 1 .94 3.69l-.44 4.19a1.35 1.35 0 0 1-2.68-.28l.46-4.25a.59.59 0 0 0 0-.13 1.78 1.78 0 0 0-.37-1.52 1.86 1.86 0 0 0-1.46-.69H13.46a1.87 1.87 0 0 0-1.83 1.47l-9 41.89a1.34 1.34 0 0 1-1.31 1.06"/><path id="Fill-710" class="cls-1" d="M1.35 63.27A1.34 1.34 0 0 1 0 61.93V5.38A5.4 5.4 0 0 1 5.39 0h15.13a4 4 0 0 1 3.15 1.51L28.88 8 66 8.08a5.38 5.38 0 0 1 5.38 5.38v4a1.35 1.35 0 1 1-2.69 0v-4A2.7 2.7 0 0 0 66 10.77H29a2.8 2.8 0 0 1-2.19-1l-5.25-6.58a1.34 1.34 0 0 0-1-.5H5.39a2.7 2.7 0 0 0-2.7 2.69v56.55a1.34 1.34 0 0 1-1.34 1.34"/></g></g></g><path class="cls-1" d="M68.07 69.75a13 13 0 1 1 12.59-9.89 12.87 12.87 0 0 1-12.59 9.89zm0-23.23a10.27 10.27 0 1 0 2.44.29 10.3 10.3 0 0 0-2.44-.29z"/><path class="cls-1" d="M80.19 78.14a1.34 1.34 0 0 1-1.19-.66l-5.87-10.16a1.34 1.34 0 0 1 .49-1.83 1.32 1.32 0 0 1 1.82.49l5.91 10.15a1.34 1.34 0 0 1-1.16 2z"/></g></g></svg>