<svg xmlns="http://www.w3.org/2000/svg" viewBox="0 0 101.55 78.88"><defs><style>.cls-1{fill:#fff;}</style></defs><title>TailoredAdvisory-White</title><g id="Layer_2" data-name="Layer 2"><g id="Services"><path class="cls-1" d="M81.62,78.88H19.93a2.67,2.67,0,0,1-2.66-2.68V66.33A14.21,14.21,0,0,1,24.5,53.9l15.57-7c.78-.44,1.73-1.32,1.73-2.1l.34-4.13a1.29,1.29,0,0,1,1.36-1.15,1.26,1.26,0,0,1,1.15,1.36l-.34,4c0,2.32-2.38,3.84-3.11,4.24l-15.57,7a11.67,11.67,0,0,0-5.84,10.18V76.2l61.83.16.14-10A11.71,11.71,0,0,0,75.82,56.1L60.45,49.19c-1.56-.86-3.12-2.43-3.12-4.4l-.14-4.2a1.26,1.26,0,0,1,2.52-.09l.14,4.25c0,.87.87,1.71,1.73,2.19L77,53.85a14.24,14.24,0,0,1,7.33,12.48V76.2A2.67,2.67,0,0,1,81.62,78.88Z"/><path class="cls-1" d="M35.16,20.62a1.26,1.26,0,0,1-1.25-1.13A1.27,1.27,0,0,1,35,18.1c.08,0,8.36-1,8.75-5.75a1.26,1.26,0,0,1,.76-1.06,1.3,1.3,0,0,1,1.3.18c.39.32,9.74,7.79,19.81,1.77a1.26,1.26,0,0,1,1.29,2.17c-9,5.37-17.64,1.27-21.11-.89-2.08,5.13-10.15,6.05-10.54,6.09Z"/><path class="cls-1" d="M50.77,44.84a6.62,6.62,0,0,1-1.54-.18h0C37,41.71,35,31.26,33.75,17.9,32.65,6.52,41.33,1.22,49.81.07a6.93,6.93,0,0,1,1.93,0C60.22,1.22,68.9,6.52,67.8,17.9c-1.28,13.36-3.24,23.81-15.48,26.76A6.64,6.64,0,0,1,50.77,44.84Zm-1-2.63a4.11,4.11,0,0,0,1.91,0c9.81-2.37,12.11-9.49,13.56-24.55C66.46,5.57,55,3.05,51.4,2.56a5.23,5.23,0,0,0-1.25,0c-3.55.49-15.06,3-13.89,15.1C37.71,32.72,40,39.84,49.82,42.21Z"/><path class="cls-1" d="M50.36,52.55a17.72,17.72,0,0,1-10-3.08,1.26,1.26,0,0,1,1.4-2.1c8.88,5.94,17.67.25,18,0a1.27,1.27,0,0,1,1.75.36,1.25,1.25,0,0,1-.35,1.74A21.49,21.49,0,0,1,50.36,52.55Z"/><path class="cls-1" d="M44.92,59h-.14a1.3,1.3,0,0,1-.85-.47l-6.69-8.44a1.26,1.26,0,0,1,.21-1.77,1.24,1.24,0,0,1,1.76.2l5.9,7.44L50,52a1.26,1.26,0,0,1,1.58,0l4.93,4,5.88-7.49a1.26,1.26,0,1,1,2,1.56l-6.67,8.49a1.25,1.25,0,0,1-.84.48,1.31,1.31,0,0,1-.94-.27l-5.12-4.12-5.07,4.11A1.19,1.19,0,0,1,44.92,59Z"/><path class="cls-1" d="M50.77,62h0a1.2,1.2,0,0,1-.89-.39l-3.84-4a1.26,1.26,0,0,1,1.83-1.74l3,3.11L54,55.81a1.26,1.26,0,1,1,1.76,1.8l-4.14,4A1.24,1.24,0,0,1,50.77,62Z"/><path class="cls-1" d="M46,78.88a1,1,0,0,1-.38-.06,1.24,1.24,0,0,1-.81-1.58l4.76-14.67a1.26,1.26,0,0,1,1.19-.87h0a1.27,1.27,0,0,1,1.2.87l4.76,14.67a1.25,1.25,0,0,1-.81,1.58A1.26,1.26,0,0,1,54.33,78L50.77,67,47.21,78A1.24,1.24,0,0,1,46,78.88Z"/><path class="cls-1" d="M71.94,77.42h-.06a1.26,1.26,0,0,1-1.2-1.31l1-22.71a1.26,1.26,0,1,1,2.51.11l-1,22.71A1.26,1.26,0,0,1,71.94,77.42Z"/><path class="cls-1" d="M29.61,77.42a1.26,1.26,0,0,1-1.26-1.2l-1-22.71a1.26,1.26,0,0,1,2.51-.11l1,22.71a1.26,1.26,0,0,1-1.2,1.31Z"/><path class="cls-1" d="M99.05,74h-15a1.26,1.26,0,1,1,0-2.52h15l0-8.7a10.15,10.15,0,0,0-5.17-8.9L80.3,47.8c-1.42-.79-2.84-2.22-2.84-4l-.13-3.7a1.27,1.27,0,0,1,1.22-1.31A1.3,1.3,0,0,1,79.85,40L80,43.74a2.51,2.51,0,0,0,1.45,1.81L95,51.65a12.72,12.72,0,0,1,6.56,11.15v8.7A2.51,2.51,0,0,1,99.05,74Z"/><path class="cls-1" d="M71.82,44a5.89,5.89,0,0,1-1.4-.16,14.7,14.7,0,0,1-9-5.78,1.26,1.26,0,0,1,2-1.45A12.2,12.2,0,0,0,71,41.36a3.55,3.55,0,0,0,1.62,0C81.2,39.29,83.22,33,84.49,19.81c1-10.54-9-12.74-12.14-13.17a3.76,3.76,0,0,0-1.06,0,19.82,19.82,0,0,0-6.16,1.92A1.26,1.26,0,0,1,64,6.32a22,22,0,0,1,7-2.17,6.34,6.34,0,0,1,1.74,0C80.25,5.18,88,9.9,87,20.06,85.86,31.9,84.12,41.18,73.22,43.81A6,6,0,0,1,71.82,44Z"/><path class="cls-1" d="M17.5,74H2.5A2.51,2.51,0,0,1,0,71.5V62.8A12.68,12.68,0,0,1,6.47,51.7l13.75-6.2a2.43,2.43,0,0,0,1.34-1.72L21.7,40A1.3,1.3,0,0,1,23,38.77a1.26,1.26,0,0,1,1.21,1.31l-.13,3.74a4.89,4.89,0,0,1-2.73,3.93L7.6,53.94A10.14,10.14,0,0,0,2.52,62.8v8.7h15a1.26,1.26,0,0,1,0,2.52Z"/><path class="cls-1" d="M29.73,44a6,6,0,0,1-1.4-.16C17.43,41.18,15.69,31.9,14.55,20.06,13.57,9.9,21.3,5.18,28.86,4.15a6.34,6.34,0,0,1,1.74,0,22.12,22.12,0,0,1,7,2.17,1.26,1.26,0,0,1-1.17,2.24,19.7,19.7,0,0,0-6.15-1.92,3.76,3.76,0,0,0-1.06,0c-3.1.43-13.15,2.63-12.14,13.17C18.33,33,20.35,39.29,28.92,41.36a3.55,3.55,0,0,0,1.62,0,12.2,12.2,0,0,0,7.58-4.78A1.26,1.26,0,0,1,40.17,38a14.7,14.7,0,0,1-9,5.78A6,6,0,0,1,29.73,44Z"/></g></g></svg>