<svg xmlns="http://www.w3.org/2000/svg" viewBox="0 0 79.82 79.84"><defs><style>.cls-1{fill:#fff;}</style></defs><title>Assets-white</title><g id="Layer_2" data-name="Layer 2"><g id="Services"><path class="cls-1" d="M37.25,61.2H35.92a1.34,1.34,0,0,0,0,2.68h1.33a1.34,1.34,0,1,0,0-2.68Z"/><path class="cls-1" d="M73.18,68V34.59h1a3,3,0,0,0,2-5.16L45.62,2.32a8.21,8.21,0,0,0-11.4,0L24,11.39V8h1.32a1.34,1.34,0,0,0,1.34-1.34V1.35A1.33,1.33,0,0,0,25.28,0h-16A1.33,1.33,0,0,0,8,1.35V6.67A1.34,1.34,0,0,0,9.32,8h1.32V23.2l-7,6.19a3,3,0,0,0,2,5.2h1V68A8,8,0,0,0,0,75.84,8.09,8.09,0,0,0,.67,79a1.35,1.35,0,0,0,1.23.8h76a1.34,1.34,0,0,0,1.22-.8,7.92,7.92,0,0,0,.67-3.2A8,8,0,0,0,73.18,68ZM10.65,2.69H23.94V5.34H10.65ZM13.31,8h8v5.75l-8,7.07ZM5.36,31.72a.28.28,0,0,1,.08-.33l7.32-6.49.1-.06L23.51,15.4a1.14,1.14,0,0,0,.15-.17L36,4.25a5.51,5.51,0,0,1,3.85-1.56,5.59,5.59,0,0,1,3.91,1.6L74.4,31.43a.25.25,0,0,1,.08.31.26.26,0,0,1-.26.18H5.64A.28.28,0,0,1,5.36,31.72ZM2.67,75.84A5.32,5.32,0,0,1,8,70.53H8a1.34,1.34,0,0,0,1.34-1.34,5.31,5.31,0,1,1,10.61,0,1.34,1.34,0,0,0,1.34,1.34,5.31,5.31,0,0,1,5.31,5.31,4.88,4.88,0,0,1-.17,1.32H2.85A4.89,4.89,0,0,1,2.67,75.84Zm26.62,0A8,8,0,0,0,22.54,68a8,8,0,0,0-7.89-6.75h0a8,8,0,0,0-5.31,2V34.61H70.51V63.23a7.94,7.94,0,0,0-4.58-2h-.26c-.16,0-.31,0-.47,0h0A8,8,0,0,0,57.29,68a8,8,0,0,0-6.74,7.89,7.2,7.2,0,0,0,.12,1.32H49.23V54.56a9.32,9.32,0,0,0-18.64,0v22.6H29.18A8.2,8.2,0,0,0,29.29,75.84Zm4,1.32V54.56a6.65,6.65,0,0,1,13.29,0v22.6Zm43.71,0H53.41a1.55,1.55,0,0,1-.06-.23v0a5.37,5.37,0,0,1-.11-1.06,5.32,5.32,0,0,1,5.32-5.31,1.34,1.34,0,0,0,1.33-1.34,5.31,5.31,0,0,1,10.62,0,1.34,1.34,0,0,0,1.34,1.34A5.3,5.3,0,0,1,77,77.16Z"/><path class="cls-1" d="M28,50.56v-12a1.34,1.34,0,0,0-1.34-1.34H13.31A1.34,1.34,0,0,0,12,38.6v12a1.34,1.34,0,0,0,0,2.68h16a1.34,1.34,0,0,0,0-2.68ZM14.65,39.93H25.27v2.65H14.65Zm0,10.63v-5.3H25.27v5.3Z"/><path class="cls-1" d="M51.88,53.24h16a1.34,1.34,0,0,0,0-2.68h0V44s0-.07,0-.1V38.6a1.34,1.34,0,0,0-1.33-1.34H53.21a1.34,1.34,0,0,0-1.33,1.34v12a1.34,1.34,0,0,0,0,2.68Zm2.67-2.68v-5.3H65.17v5.3Zm0-10.63H65.17v2.65H54.55Z"/></g></g></svg>