<?xml version="1.0" encoding="UTF-8"?> <svg xmlns="http://www.w3.org/2000/svg" id="a" viewBox="0 0 150 150"><defs><style>.b{fill:#334041;}</style></defs><path class="b" d="M95.3,89.79c-.65,0-1.36,0-2.15,0h-3.38c-.44,0-.85-.18-1.16-.49l-6.57-6.57c-.13-.13-.23-.27-.31-.43l-3.28-6.57c-.41-.81-.08-1.8,.73-2.2,.81-.4,1.8-.07,2.2,.74l3.16,6.33,5.9,5.9h2.71c3.14,.02,5.52,.02,6.44-.14-.04-.65-.25-1.08-.64-1.47-1.44-1.42-4.74-1.73-5.88-1.67-.42-.01-.86-.16-1.18-.47-.31-.31-.49-.73-.49-1.17v-4.92c0-.72,.46-1.35,1.15-1.57,3.21-1.01,7.1-8.98,8.8-13.76,.23-.65,.85-1.09,1.55-1.09,6.38,0,14.77-6.2,14.77-9.85,0-2.82-8.67-4.92-16.41-4.92-.34,0-.68-.11-.95-.31-1.16-.83-4.72-2.98-7.25-2.98-.12,0-.43,0-.68,.84-.56,1.93,.28,5.17,1.56,5.98,.77,.49,.99,1.5,.5,2.27-.49,.77-1.5,.99-2.27,.5-2.74-1.74-3.83-6.62-2.95-9.66,.58-2.01,2.02-3.21,3.83-3.21,3.48,0,7.38,2.39,8.73,3.29,3.18,.06,19.18,.74,19.18,8.2,0,5.89-9.67,12.41-16.89,13.08-1.21,3.14-4.83,11.69-9.37,14.25v2.3c1.84,.18,4.74,.74,6.56,2.54,1.08,1.06,1.64,2.43,1.64,3.95,0,.6-.08,1.48-.79,2.19-.99,.99-2.38,1.11-6.81,1.11Z"></path><path class="b" d="M55.3,111.11c-15.22,0-26.26-7.59-26.26-18.06,0-7.74,2.38-12.22,3.29-13.64,.27-12.53,10.44-35.6,26.26-35.6,6.71,0,10.09,1.45,13.06,2.73,2.74,1.18,5.11,2.2,9.92,2.2s8.55-2.48,8.59-2.5c.74-.53,1.76-.36,2.29,.38,.53,.74,.36,1.76-.38,2.29-.18,.13-4.43,3.12-10.5,3.12-5.48,0-8.4-1.25-11.21-2.46-2.95-1.27-5.73-2.46-11.77-2.46-13.5,0-22.98,21.3-22.98,32.83,0,.36-.12,.72-.34,1.01-.02,.03-2.94,4-2.94,12.13,0,8.56,9.67,14.77,22.98,14.77,6.74,0,12-2.11,15.65-4.32-4.91,1.31-11.13,2.68-15.65,2.68-9.13,0-19.7-7.95-19.7-13.13,0-4.51,3.56-9.85,6.57-9.85h4.92c1.64,0,3.11,.91,3.85,2.38,.28,.56,.84,.91,1.47,.91h17.79c3.13,.02,5.5,.03,6.43-.14-.04-.65-.25-1.08-.65-1.47-1.44-1.42-4.83-1.75-5.88-1.67-.43,.02-.86-.16-1.18-.47-.31-.31-.49-.73-.49-1.17,0-5.91-2.86-11.49-7.66-14.94-.74-.53-.9-1.55-.37-2.29,.53-.74,1.56-.9,2.29-.37,5.23,3.76,8.5,9.67,8.97,16.04,1.84,.17,4.78,.73,6.62,2.54,1.07,1.06,1.64,2.42,1.64,3.95,0,.6-.08,1.48-.79,2.19-1.14,1.13-2.79,1.15-8.94,1.1h-17.78c-1.88,0-3.57-1.05-4.4-2.73-.17-.34-.52-.56-.91-.56h-4.92c-.72,.21-3.28,3.26-3.28,6.57,0,2.86,8.76,9.85,16.42,9.85s22.31-4.79,22.46-4.84c.69-.23,1.45,.02,1.87,.62,.42,.6,.39,1.4-.07,1.97-.34,.43-8.61,10.46-24.26,10.46Z"></path><path class="b" d="M75.81,83.96c-.56,0-1.12-.04-1.66-.13-.89-.15-1.49-1-1.34-1.89,.15-.89,1.02-1.48,1.89-1.34,2.59,.45,6.18-.89,7.35-1.44,.82-.39,1.8-.04,2.18,.78,.39,.82,.04,1.8-.78,2.18-.18,.09-3.95,1.84-7.64,1.84Z"></path></svg> 